<svg width="900" height="500" viewBox="0 0 900 500" xmlns="http://www.w3.org/2000/svg" role="img" aria-label="Bear silhouette">
  <path
    d="M110 310 C100 260 130 220 180 200 C240 175 320 175 390 205 C430 175 480 160 540 160 C630 160 720 200 790 255 C835 290 860 330 852 360 C845 395 800 415 740 415 C700 450 640 475 565 485 C475 498 390 480 320 440 C275 415 240 380 215 340 C180 350 145 348 120 335 C110 328 105 320 110 310 Z"
    fill="#ff4d4d"
  />
  <path
    d="M300 375 C350 405 405 425 465 432 C535 440 600 430 655 405 C690 390 720 370 740 345 C700 330 660 305 620 270 C560 220 500 200 430 200 C370 200 320 220 285 250 C250 280 230 310 220 335 C245 350 270 363 300 375 Z"
    fill="#b71f2c"
    opacity="0.7"
  />
</svg>
