<svg xmlns="http://www.w3.org/2000/svg" version="1.1" xmlns:xlink="http://www.w3.org/1999/xlink" width="512" height="512" x="0" y="0" viewBox="0 0 64 64" style="enable-background:new 0 0 512 512" xml:space="preserve"><g transform="matrix(-1,0,0,1,64.2180438041687,0)"><path d="m61.18 26-2.87-11.8a1 1 0 0 0-1.8-.32l-2.88 4.25L24.36 3.55a1 1 0 0 0-1.17.21L11.7 15.93l-7.25-3.66a1 1 0 0 0-1.45.89V21a1 1 0 0 0 .55.89l8 4a1 1 0 0 0 1.16-.18l12.49-12.5 23.93 11.58-1.8 2.67a1 1 0 0 0 1 1.55l12.05-1.75a1 1 0 0 0 .8-1.26zM56.32 43.39c0-.72.34-2.47-.49-3.84-1-1.61-4-2.53-5.77-3.25-2.06-.87-6.36-5.83-8.94-6.3-4.35-.77-6.48.62-9.06.38s-2.72-.75-5.77-1.25a22.34 22.34 0 0 0-12 2.13C11.33 32.91 7 37 6.7 39.91a2 2 0 0 0 .56 1.84 2.55 2.55 0 0 0 2.47.14 22.6 22.6 0 0 0 .27 6.45c.88 6.43.23 5.64-.67 10.48a1 1 0 0 0 1 1.18h11.42a1 1 0 0 0 1-1.19c-.28-1.45-.47-2.41-1.85-3.26s-1.53-.27-1.51-1.79a10.13 10.13 0 0 1 .69-2.76 16.5 16.5 0 0 0 11.78-.44 30.61 30.61 0 0 0 4.55 9 1 1 0 0 0 .8.41h6.16a1 1 0 0 0 1-1.15c-.39-2.52-2.91-3.45-3.45-5.28s0-3.89.55-6a23.42 23.42 0 0 1 3.93-1.34c1.54 0 9.45 3.82 10.54 3.85 1 0 1.92-1 2.78-3.08a1 1 0 0 0-.12-.97c-.93-1-2.01-2.23-2.28-2.61z" fill="#960404" opacity="1" data-original="#000000"></path></g></svg>