<svg xmlns="http://www.w3.org/2000/svg" version="1.1" xmlns:xlink="http://www.w3.org/1999/xlink" width="512" height="512" x="0" y="0" viewBox="0 0 500 500" style="enable-background:new 0 0 512 512" xml:space="preserve" class=""><g><path fill-rule="evenodd" d="m156.038 310.348-.52-.694a.826.826 0 0 0-.219-.206c-18.384-12.045-34.117.947-47.321 19.832-8.09 11.572-15.334 25.396-21.749 37.638-2.907 5.547-5.649 10.78-8.265 15.419a.827.827 0 0 0-.107.513l1.045 10.411a.85.85 0 0 1-.422.833l-19.665 11.613c-.262.155-.561.165-.833.027s-.441-.384-.471-.687l-2.28-22.724a.85.85 0 0 1 .422-.833l11.654-6.882a.833.833 0 0 0 .318-.327c2.239-4.046 4.616-8.583 7.12-13.361 6.598-12.593 14.05-26.813 22.613-39.061 17.395-24.88 38.882-41.386 66.085-22.548l.013.009c1.472.981 2.971 3.214 4.232 4.95a.856.856 0 0 0 1.004.303c6.313-2.351 13.18-4.619 21.015-8.771 36.053-19.108 67.708-41.712 105.47-65.815 19.971-12.747 38.482-25.959 58.327-8.646l21.793 19.01a.84.84 0 0 0 .69.205l42.608-5.933a.834.834 0 0 0 .478-.23l30.885-29.366a.856.856 0 0 1 1.048-.112c.34.207.493.602.382.983l-15.397 52.862a.847.847 0 0 1-.618.598l-42.108 10.725a.842.842 0 0 0-.553.436.838.838 0 0 0-.047.702l17.913 48.989a.859.859 0 0 1-.325 1.014l-21.703 14.837a.851.851 0 0 1-.937.027l-35.93-21.629a.868.868 0 0 0-1.184.287c-5.529 8.93-13.055 16.045-22.156 21.728-.232.145-.371.366-.402.637s.055.518.248.711l26.701 26.7a.852.852 0 0 1 .166.993l-20.855 42.781a.85.85 0 0 1-.779.487h-21.396c-.27 0-.503-.111-.673-.321s-.231-.461-.175-.725l6.567-31.136a.846.846 0 0 0-.226-.783l-14.414-14.864a.849.849 0 0 0-.868-.228c-34.006 10.008-48.363 12.172-83.8 10.005a.848.848 0 0 0-.798.42c-22.808 37.919-19.122 31.61-58.975 44.302a.83.83 0 0 0-.454.337l-28.788 42.009a.845.845 0 0 1-.716.377H95.41a.848.848 0 0 1-.761-.451.85.85 0 0 1 .031-.885l37.054-57.675a.841.841 0 0 0 .104-.71c-5.091-17.61-12.756-25.505-8.195-41.118 3.684-12.614 10.338-24.569 19.718-35.917 4.196-5.074 8.364-8.486 12.677-11.072zm26.473-211.387a.868.868 0 0 0-.867.867v116.485c0 .319.159.593.435.752a.847.847 0 0 0 .869-.003l27.485-16.018a.847.847 0 0 0 .43-.749V99.828a.868.868 0 0 0-.867-.867zM391 114.606l11.986 2.35c.361.071.627.344.688.707s-.101.708-.419.893l-226.766 132.16a.86.86 0 0 1-1.075-.162l-18.629-20.216-.005.004a6.485 6.485 0 0 0-8.737-.741L51.1 304.737a6.487 6.487 0 0 0 7.929 10.267l91.611-71.001a.865.865 0 0 1 1.169.098l18.06 19.599a6.493 6.493 0 0 0 8.205 1.118l.022-.013 230.678-134.439a.856.856 0 0 1 .997.087.854.854 0 0 1 .251.968l-3.889 10.33a6.49 6.49 0 0 0 12.147 4.575l11.051-29.352.008-.021c1.66-4.086-.741-8.219-4.705-8.995l-31.144-6.107a6.5 6.5 0 1 0-2.49 12.755zm-271.028 20.539a.868.868 0 0 0-.867.867v79.127c0 .319.159.593.435.752a.847.847 0 0 0 .869-.003l27.485-16.018a.847.847 0 0 0 .431-.749v-63.108a.868.868 0 0 0-.867-.867h-27.486zm125.079-62.098h27.485c.478 0 .867.389.867.867v89.932c0 .317-.156.59-.431.749l-27.485 16.018c-.276.161-.592.162-.869.003s-.435-.433-.435-.752V73.915a.871.871 0 0 1 .868-.868zm62.541-31.224h27.485c.478 0 .867.389.867.867v84.708c0 .317-.156.59-.431.749l-27.485 16.018c-.276.161-.592.162-.869.003s-.435-.433-.435-.752V42.69c0-.478.39-.867.868-.867z" clip-rule="evenodd" fill="#2ca910" opacity="1" data-original="#000000" class=""></path></g></svg>