<svg width="900" height="500" viewBox="0 0 900 500" xmlns="http://www.w3.org/2000/svg" role="img" aria-label="Bull silhouette">
  <path
    d="M120 260 C110 220 130 180 170 170 C210 160 260 170 300 195 C340 165 380 150 430 150 C520 150 610 190 670 240 C720 220 770 215 820 230 C840 235 858 250 865 270 C872 290 868 310 855 325 C832 350 790 350 750 340 C720 400 660 435 590 450 C530 465 470 460 410 440 C360 422 320 395 290 360 C260 380 220 388 180 380 C135 370 105 340 100 310 C95 285 103 270 120 260 Z"
    fill="#19c37d"
  />
  <path
    d="M280 360 C320 380 365 395 410 405 C465 417 525 418 585 405 C640 392 685 362 715 320 C675 310 640 290 610 260 C560 210 505 190 440 190 C380 190 330 210 290 240 C255 268 225 305 210 335 C230 345 255 352 280 360 Z"
    fill="#0c7a4f"
    opacity="0.65"
  />
</svg>
